<?xml version="1.0" encoding="UTF-8"?>
<svg id="Layer_2" data-name="Layer 2" xmlns="http://www.w3.org/2000/svg" viewBox="0 0 106.39 106.39">
  <defs>
    <style>
      .cls-1 {
        fill: none;
        stroke: #660874;
        stroke-miterlimit: 10;
      }

      .cls-2 {
        fill: #660874;
        stroke-width: 0px;
      }
    </style>
  </defs>
  <g id="Layer_1-2" data-name="Layer 1">
    <g>
      <path id="path" class="cls-2" d="m73.58,22.69c.47.24,1.11-.09,1.38-.4,0,0,1.27.08,1.57-.05.3-.13.62-.43.46-.72-.16-.29-.38-.13-.65-.16-.27-.03-.59-.11-.79-.19-.19-.08-.32-.37-.43-.4-.11-.03-.87-.17-1-.1-.13.07-.75.59-.83.84-.08.25-.18.93.29,1.18h0Zm3.97-4.15s.47-.08.63,0c.15.08.68.59,1.2.49.52-.1.73-.36.79-.88.05-.52-.55-.57-.55-.57,0,0-.92-.49-1.07-.54-.16-.05-.21-.28-.6-.21-.39.08-.42.1-.52.39-.11.29-.37.93.13,1.32h0Zm-1.44,1.91c.18,0,.81-.08,1.05-.13.24-.05.29.08.39.13.11.05.21.1.61-.1.39-.21.47-.57.05-.83-.42-.26-.29.13-.81-.18-.53-.31-.55-.47-1.15-.57,0,0-.29-.23-.47.1-.18.34-.32.93-.18,1.19.13.26.34.39.52.39h0Zm12.55,15.62c.57,0,1.03-.46,1.03-1.02s-.46-1.02-1.03-1.02-1.03.46-1.03,1.02.46,1.02,1.03,1.02Zm-5.75-10.27c.04.3-.12.42-.33.45-.21.03-.5-.31-.54-.42-.05-.12-.12-.31-.2-.39-.08-.08-.39-.23-.58-.27-.18-.04-.23-.04-.36-.2-.14-.17-.24-.39-.24-.62,0-.23.25-.31.25-.31.17-.1.39-.01.5.04.12.05.77.82.96.98.19.16.49.46.53.76h0Zm-1.45,2.27c-.13.09-.32.13-.35.03-.03-.1-.28-.37-.37-.46-.09-.09-.33-.18-.28-.5.05-.33.39-.51.39-.51.56-.27.95.14,1.07.6.12.46-.31.75-.44.85h0Zm-1.43-2.08c-.17.34-.7.35-.94.35s-.25-.41-.19-.57c.05-.16.53-.42.53-.42.65-.15.77.3.6.64h0Zm2.05-2.43c-.24-.13-1.13-.83-1.45-.99-.32-.16-.63-.43-.82-.59-.19-.16-.65-.37-.85-.35-.19.02-.39.14-.37.57.02.43.19.81.32.85.13.04.64.31.71.42.07.11.27.34-.07.57-.34.23-.68.43-1.16.52-.47.09-1.01.26-1.43.28-.42.01-1.13-.2-1.29-.35-.16-.16-.34,0-.5.12-.17.11-.43.23-.37.67.07.44.64,1.19,1.16,1.26.52.07,1.43-.16,1.81-.04.38.12,1.18.79,1.79,1.59.6.8.7.93.63,1.06-.08.12-.72.8-.52,1.29.21.48.46.71.7.58.24-.13.36-.32.69-.89.32-.56,1.99-2.72,2.36-2.8.36-.07.58-.03.93.47.35.49.87,1.36,1.12,1.46.25.1.87.25.97.29.1.04.47-.51.5-.7.02-.19.05-.73-.09-.78-.14-.05-.31-.15-.42-.13-.04,0-2.14-2.21-2.54-2.71-.41-.5-.49-.54-.24-.63.15-.09.46.31.5.33.03.02.54.5.58.65.04.15.21.39.55.33.34-.06.51-.29.5-.64,0-.35-.21-.66-.38-.69-.16-.02-.73-.58-.95-.81-.22-.23-.29-.34-.1-.48.18-.14.34-.08.41.03.08.11.88,1.49,1.52,1.66.65.17.81-.02.95-.18.13-.16.22-.46.06-.56-.17-.1-.81-.61-1.13-1.02-.32-.42-.75-.99-.77-1.15,0,0,.12-.47.09-.65-.02-.18-.3-.32-.58-.28-.28.04-.45.2-.53.21-.08.02-.25-.22-.45-.34-.2-.11-.4-.12-.53-.3-.13-.18-.03-.5-.12-.52-.09-.02-.86-.31-1.04-.16-.18.15-.37.52-.27.92.1.4.18.53.51.64.34.11,1.22.57,1.17.96-.05.38-.55.13-.79.06-.23-.07-.59-.47-.79-.93-.2-.46-.47-.33-.62-.31-.14.02-.5.03-.47.38.03.36.28.34.29.52.01.19-.02.3.13.35.16.05.41.07.58.22.17.16.69.61.62.7-.07.09-.27.15-.51.02h0Zm-55.08,1.47c.05-.35.5-.42.5-.42.3-.07.57-.05.57.25s-.42.59-.69.59-.42-.07-.37-.42h0Zm-2.62-4.7c.34-.04.5-.07.43.05-.07.12-.2.7.1.7s.73-.02.78.02c.06.03.2.25.29.6.09.35.14.74,0,.95-.14.21-3.92,4.81-3.92,4.81,0,0-.25.12-.43.19-.18.07-.3.19-.3.53s-.02.77.39.84c.41.07.8.09,1.03.05,0,0,1.35.72,1.62,1.12.27.4.43.67.67.63.25-.04.41-.09.36-.77-.05-.68-.66-1.05-.89-1.21-.23-.16-1.12-.68-1.22-.74-.11-.05-.04-.46.12-.61.16-.16,1.21-1.79,1.4-1.77.2.02.25.16.21.3-.03.14-.07.93.39.88.46-.05.45-.14.7-.56.25-.42.62-.67.74-.44.12.23.27.6.12.79-.14.19-.83,1.02-1.01,1.11-.18.09-.57.44-.41.63.16.19.48.49.87.39.39-.11.53-.39.78-.72.25-.33.83-1.49,1.13-1.6.31-.1.77-.16.84.35.09.31-1.76,2.03-1.76,2.03,0,0-.23.44.69.65,0,0,.67-.54.94-.66.27-.12.49-.26.71-.44.21-.17.8-1.51.5-1.93-.3-.42-.57-1-.51-1.39.05-.39.42-.44.53-.46.11-.02.6-.58.6-.98s-.3-.74-.6-.72c-.3.02-.55.49-.64.63-.09.14-.14.67-.43.63-.28-.03-.32-.33-.41-.63-.09-.3-.12-.63-.51-.63s-.93.3-1.38.89c-.46.6-.71.95-.82,1.12-.1.18-.42.39-.6.35-.18-.04-.06-.3.05-.47.11-.18,2.38-2.91,2.45-2.96.07-.05.6-.44,1.01-.3.41.14.51.35.69.54.18.19.59.56.76.53.18-.04.73-.49.6-.86-.13-.37-.55-.77-.8-.96-.25-.19-.55-.53-.62-.77-.07-.24-.1-.37-.37-.35-.27.02-.9.16-1.01.3-.11.14-.96,1.21-.96,1.21,0,0-.09.23-.32-.35-.23-.58-.65-1.19-.85-1.28-.2-.09-.35-.09-.55-.16-.19-.07-.23-.25-.19-.4.03-.16-.28-.42-.44-.46-.16-.03-.59-.12-.94.42-.36.54-.6.97-.36,1.14.25.17.41.25.75.21h0Zm-4.58,4.65c.23.13.9.63,1.24.89.34.26.77.69,1.02.75.24.06.57-.12.72-.47.16-.35.34-1.15.3-1.5-.03-.34-.23-.39-.44-.38-.21.01-.32.35-.38.49-.06.15-.26.27-.39.2-.13-.06-.1-.35-.04-.51.06-.16.24-.42.17-.52-.27-.32-.45-.3-.7-.26-.25.04-.42.53-.59.6-.16.07-.11-.16-.03-.39.07-.23.14-.54.12-.74-.02-.19-.46-.31-.46-.31,0,0-.39-.06-.56.14-.17.2-.45,1.07-.47,1.38-.02.31.26.5.5.62h0Zm-3.83,19.57l1.02.34,1.17-4.03-1-.25-.45,1.25-4.13-1.2-.42,1.35,4.15,1.23-.34,1.3h0Zm1.75-8.76c.57,0,1.03-.46,1.03-1.02s-.46-1.02-1.03-1.02-1.03.46-1.03,1.02.46,1.02,1.03,1.02Zm19.93-19.5c.44-.08.89-.77,1.39-1.14.5-.36,1.41-.98,1.57-.75.15.23.42,1.6-.11,2.74-.52,1.13-1.2,1.68-1.65,1.76-.44.08-1.02.52-.97.78.06.26.29,1.03.37,1.24.08.21.21.44,1,.29.78-.16,1.52-.49,1.75-1.14.24-.64.73-1.42.86-3.7-.13-1.55.81-.67.81-.67,0,0,3.17,2.27,4.5,2.3,1.34.03,2.1-.28,2.75-1.86.21-.49-.13-.52-.34-.46-.21.05-3.59-.36-5.65-1.14-2.07-.77-1.2-1.19-.89-1.27.37-.13,2.33-.52,2.51-.65.18-.13.71-.7.42-1.4-.29-.7-.34-.62-.84-.52-.5.1-2.04.46-2.3.67-.26.21-.63.57-.91.6-.29.02-.71.18-.86-.21-.16-.39-.18-1.58-.5-1.58s-.87.13-1.15.67c0,0,.31,1.34.39,1.71,0,0,.03.26-.7.62-.73.36-1.78.85-2.07.96-.29.1-.73.62-.65,1.03.08.41.84,1.19,1.28,1.11h0Zm50.89,25.91l2.48.59-1.94,1.72.4,1.52,2.81-2.68,2.02-.49-.38-1.45-1.97.54-3.75-1.1.32,1.35h0ZM23,22.17c.27-.24.81-.03.87.12.06.15-.04.37-.14.42-.1.05-.34.06-.5-.03-.16-.08-.28-.47-.24-.51h0Zm-1.45.27c.19,0,.67.07.74.11.07.03.12.36.19.47.06.1.18.37.36.36.18,0,.43-.04.51.04.07.08.4.58.56.71.16.13.5.05.52-.15.02-.2-.08-.76.1-.87.19-.11.47-.19.68-.23.21-.03.3-.16.26-.41-.03-.25-.16-.31-.35-.29-.19.02-.38.11-.45.05-.06-.06-.17-.23-.27-.39-.09-.16-.28-.27-.45-.27s-.37-.01-.48-.19c-.11-.18-.16-.27-.18-.44-.02-.17.03-.5-.28-.5-.31,0-.62.08-.72.24-.1.16.11.39.04.53-.07.14-.18.33-.32.37-.14.04-.47.08-.56.06,0,0-.28.25-.26.41.02.16.17.38.36.38h0Zm38.36-7.96c.14-.16.28-.21.47-.25.19-.03.69-.2.8-.51.1-.31.1-.55-.06-.66-.16-.11-.43-.32-.31-.55.12-.23.33-.23.96-.13,0,0,.45.02.43.25-.02.23-.18,1.8-.69,2.08-.38.16-1.21,0-1.21,0,0,0-.53-.08-.4-.24h0Zm1.84-3.44c.26-.31,1.46.1,1.91.31.45.21.24.36.05.36s-.34-.07-.84-.13c-.49-.05-1.1-.41-1.1-.41-.06-.05-.03-.13-.03-.13h0Zm2.84,1.84c.17.05.43.25.39.46-.03.21-.39.36-.58.45-.19.08-.43.13-.5.26-.07.14-.03.38.14.46.16.08.25.31.2.48-.05.17-.45.34-.77.34s-.56-.21-.64-.34c-.08-.13.11-.74.2-1.02.09-.29.52-1.14.52-1.14.21-.16.87.01,1.04.06h0Zm-8.21,2.58c.42.13,2.38.23,2.64.23s2.38.26,2.46.57c.08.31-.42.57-.86.52-.44-.05-1.15-.42-2.09-.52-.94-.1-1.97,0-1.99.41-.03.41.5.67.73.72.24.05,1.73-.23,3.4.65,0,0-.34,1.58-.23,1.81.11.23.57.23.71.08.13-.16.34-.54.47-1.14.13-.59.34-.41.5-.36.16.05.68.49,1.81.59,1.12.1,1.52.29,1.73-.21.21-.49-.47-.67-.68-.72-.21-.05-.97-.16-1.54-.41-.58-.26-1.1-.52-1.1-.7s.16-.36.34-.34c.18.03,1.62.31,2.54.96.92.65,2.04,1.03,2.38,1.01.34-.03.99-.36,1.15-.83.16-.47-.58-.88-.89-1.04-.31-.16-.55-.18-.91-.21-.37-.03-1.39-.31-1.68-.47-.29-.16-.39-.23-.29-.54.1-.31.55-.08.71-.08s.5.39.91.1c.42-.29.37-.6.15-.78-.21-.18-.31-.34-.36-.54-.06-.21-.24-.62-.5-.75,0,0,.58-.36.6-.9,0,0-.08-.13-.47-.23-.39-.1-.47-.49-.29-.44.18.05,1.31.62,1.52.36.21-.26.36-.72.1-.93-.26-.2-.89-.62-1.46-.72,0,0,.16-.85-.11-1.01-.26-.16-.39-.26-.57-.05-.18.21-.39.67-.79.72-.39.05-.91-.36-1.28-.41-.37-.05-.79-.1-1.02-.26-.24-.16-.13-.57-.32-.65-.18-.08-.52-.23-.86.1-.34.34-.58.16-.79.16s-1.28-.18-1.52.18c-.24.36-.39.72-.03,1.24,0,0,.42.1.66.1s1.15,0,.97.23c-.18.23-1.18.13-1.18.13,0,0-.23.23-.05.67.18.44.21.36.5.39.29.02.45.05.18.33-.26.28-.73.1-1,.1s-.94-.13-1.07.39c-.13.52.26,1.03.52,1.09.26.05.84-.21.84-.05s.08.39-.34.36c-.42-.03-1.94-.41-2.22-.44-.29-.03-.79.05-.89.54-.11.49.44.83.87.95h0Zm34.26,31.01l-1.02.12.35,4.03,1.07-.08-.07-1.35,4.3-.44-.1-1.4-4.35.47-.17-1.35h0Zm-12.38,32.98l-1.02.82,2.11,2.69c.75,1.01.06,1.59-.67,1.53-.36-.03-.61-.32-.61-.32l-2.23-2.64-1.02.86,2.59,3.1c.44.49.75.53,1.24.47.95-.12,2.09-.89,2.35-1.85.27-1.02-.58-2.09-.58-2.09l-2.15-2.57Zm-18.16,9.3l-1.49,1.5.72.76.89-.81.72,3.68,1.27-.17-1.07-5.16-1.04.19h0Zm-9.55,2.51c-.11.26-.39.52-.88.38-.96-.44-.35-1.67.27-1.64.32.01.6.25.68.8,0,.03.04.21-.07.46h0Zm.81-1.43c-.42-.47-.97-.57-1.41-.6-1.01-.06-1.67.8-1.69,1.65,0,.3,0,.58.18.84.39.55.81.69,1.15.7.81.02,1.33-.83.97.27-.19.58-.51.74-.96.76-.38.02-.8-.03-1.25-.27l-.09.87c0,.06,1.6.65,2.74-.17.42-.3.89-1.35.84-2.4-.02-.42.05-1.06-.49-1.67h0Zm4.15-.52l-1.69,1.3.65.86.97-.74.25,3.85,1.22-.1-.27-5.26-1.12.07h0Zm8.72.54l.5,1.23,4.02-1.45-.45-1.25-4.08,1.47h0Zm25.72-36.81h5.39v-1.47h-5.37l-.02,1.47h0Zm3.36.94c-.36.06-.89.46-1.05,1.2-.49,2.14-1.29,1.52-1.45.69-.14-.76.18-1.46.18-1.46l-1.05-.04c-.06.37-.15.94-.15,1.59.04.48.11,1.23.85,1.78.48.36,2.02.72,2.43-1.12.42-1.86,1.29-1.41,1.45-.64.14.7-.12,1.59-.12,1.59l1.01.1c.07,0,.1-.43.05-2.05-.05-1.75-1.77-1.72-2.14-1.66h0Zm-1.94,7.25c-.23.65-.25.55-.25.55l-1.35-.34s.12-1.02.67-1.28c.55-.25,1.16.42.94,1.07h0Zm.89-1.3s0,.05,0,.05c0,0,0-.02,0-.05,0-.17-.15-.77-.65-1.1-.63-.42-1.7-.38-2.21.88-.46,1.16-.62,1.84-.67,2.23-.06.38-.02.49.03.5l5.19,1.36.43-1.38-2.07-.63s0-.54.45-.82c.16-.1.4-.11.69-.12,1.32-.05,1.36-.04,1.36-.04l.3-1.45s-1.49.09-2.32.27c-.32.07-.48.22-.53.3h0Zm-6.23,9.09l3.09,3.1-4.23-.86-.72,1.28,5.56.98.9-1.55-3.9-4.22-.7,1.28h0Zm5.57-1.64l-1.17-.52.79-2.01-.89-.34-.82,2.04-1.07-.44.8-2.09-.87-.39-1.37,3.49,5.04,1.97,1.39-3.59-.9-.37-.94,2.26h0Zm-8.62,6.78l4.4,3.11.82-1.13-4.4-3.12-.82,1.13h0Zm-1.44,1.89l3.03,2.7-4.35-1.28-1.22,1.35,4.08,3.58.84-.96-3.03-2.68,4.33,1.25,1.14-1.32-3.98-3.64-.84.98h0ZM14.07,49.03c.62-1.8,1.44-1.26,1.51-.48.06.71-.3,1.56-.3,1.56l1,.22c.07.01.14-.42.27-2.03.14-1.75-1.57-1.91-1.94-1.89-.37.02-.93.36-1.18,1.07-.72,2.08-1.46,1.36-1.52.53-.06-.77.34-1.43.34-1.43l-1.04-.16c-.09.36-.25.92-.32,1.57-.01.48-.03,1.23.65,1.87.43.41,1.92.94,2.53-.83h0Zm1.96,16.58l-.84.29.29.79-1.17.45s-.35-.48-.4-1.12c-.02-.25.03-.47.16-.78.46-1.09,1.91-1.36,2.92-.75,1.02.66.87,2.43.9,2.43l1.01-.16s-.15-1.51-.65-2.36c-.67-1.15-1.59-1.64-2.49-1.65-.49,0-1.04.16-1.55.38-.33.14-.58.37-.96.82-.06.07-1,1.18-.01,3.32.57,1.23.75,1.36.75,1.36l2.89-1.06-.86-1.93h0Zm.82-6.25l-4.07.71,3.8-2.6-.25-1.74-5.34.83.17,1.2,3.98-.59-3.73,2.48.25,1.77,5.37-.76-.18-1.3h0Zm-.59-7l-5.39-.02-.03,1.47,5.39.02.03-1.47h0Zm9.66,25.19l-.83-1.03-2.36,1.92c-1.44,1.17-2.39-.26-1.9-.9.75-.97,2.06-1.64,3.01-2.49l-.8-1.13s-2.78,2.23-2.88,2.38c-.1.14-1.27.92-.41,2.52,1.05,1.93,2.81,1.28,3.5.79.69-.49,2.66-2.06,2.66-2.06h0Zm-4.59-6.35l-1.76.95-.87-1.4,1.79-1.13-.67-1.23-4.67,2.68.67,1.2,1.96-1.03.79,1.5-1.89,1.08.65,1.28,4.65-2.7-.65-1.2h0Zm5.37,11.61l-.94-.93,1.81-1.01-.87,1.94Zm-4.05-.81l.99.93,1.1-.56,1.52,1.45-.52,1.08,1.09,1.03,2.26-5.3-1.24-1.23-5.19,2.61h0Zm20.38,7.28l.57.96.97-.42-.8,3.81,1.27.25,1.1-5.06-1.07-.25-2.04.71h0Zm-6.61-.03l4.03,1.6.47-1.3-4-1.55-.5,1.25h0Zm68.58-34.14c-.53.92-2.69,1.61-3.05,1.72-.36.11-.81.44-.81.44-.21-.66-.1-1.34-.01-2.22.09-.88,2.31-2.04,2.94-2.35.64-.31,1.18-.83,1.18-.83.45.98.29,2.31-.25,3.24h0Zm-.36,4.48c-.63.87-2.88,1.39-3.26,1.47-.37.09-.88.39-.88.39-.14-.7.05-1.39.25-2.27.2-.88,2.56-1.83,3.22-2.07.66-.24,1.25-.7,1.25-.7.34,1,.05,2.31-.58,3.19h0Zm-.72,4.42c-.68.83-2.96,1.2-3.35,1.27-.38.06-.9.33-.9.33-.1-.71.14-1.38.39-2.25.25-.87,2.67-1.66,3.35-1.87.67-.2,1.28-.62,1.28-.62.27,1.02-.1,2.31-.78,3.14h0Zm-1.18,4.34c-.77.75-3.08.88-3.46.9-.39.02-.93.23-.93.23-.02-.71.29-1.36.64-2.19.35-.84,2.84-1.37,3.53-1.5.69-.13,1.35-.48,1.35-.48.16,1.05-.35,2.29-1.12,3.04h0Zm-1.58,4.34c-.82.7-3.13.67-3.52.67-.39,0-.95.17-.95.17.04-.71.39-1.33.79-2.14.4-.81,2.93-1.17,3.63-1.26.7-.08,1.38-.39,1.38-.39.08,1.06-.51,2.26-1.33,2.96h0Zm-1.88,4.07c-.88.62-3.18.37-3.57.33-.38-.04-.96.07-.96.07.1-.7.51-1.29.99-2.06.48-.77,3.03-.89,3.73-.91.7-.01,1.41-.26,1.41-.26-.01,1.06-.73,2.2-1.61,2.82Zm-2.21,3.96c-.92.56-3.2.17-3.58.1-.38-.07-.96.02-.96.02.15-.7.6-1.26,1.12-1.99.53-.74,3.08-.7,3.78-.67.71.03,1.42-.17,1.42-.17-.08,1.06-.87,2.15-1.79,2.71h0Zm-2.65,3.74c-.97.47-3.2-.16-3.57-.26-.37-.1-.96-.08-.96-.08.22-.68.72-1.19,1.32-1.87.6-.68,3.13-.38,3.83-.28.7.1,1.43-.02,1.43-.02-.19,1.04-1.09,2.05-2.06,2.51h0Zm-2.85,3.49c-1.01.39-3.18-.42-3.54-.56-.36-.13-.95-.16-.95-.16.28-.66.82-1.12,1.48-1.75.66-.63,3.15-.12,3.84.04.69.16,1.43.1,1.43.1-.28,1.02-1.26,1.95-2.27,2.33h0Zm-3.2,3.17c-1.04.29-3.12-.71-3.47-.87-.35-.17-.93-.25-.93-.25.34-.63.92-1.04,1.63-1.61.71-.57,3.15.16,3.82.38.67.22,1.41.22,1.41.22-.37.99-1.43,1.83-2.47,2.12h0Zm-3.51,2.96c-1.06.19-3.05-.99-3.37-1.19-.33-.19-.9-.33-.9-.33.39-.6,1.01-.96,1.78-1.45.76-.5,3.12.45,3.77.73.64.28,1.39.35,1.39.35-.46.95-1.6,1.69-2.66,1.89h0Zm-3.71,2.56c-1.08.11-2.93-1.23-3.25-1.45-.31-.22-.86-.4-.86-.4.45-.56,1.11-.87,1.92-1.31.81-.44,3.07.7,3.68,1.03.62.33,1.35.46,1.35.46-.56.91-1.76,1.56-2.84,1.67h0Zm-3.9,2.28c-1.09-.01-2.79-1.54-3.07-1.79-.28-.25-.82-.49-.82-.49.51-.51,1.2-.75,2.05-1.1.85-.35,2.98,1.02,3.55,1.41.58.4,1.29.6,1.29.6-.66.85-1.92,1.36-3.01,1.36h0Zm-4.1,1.95c-1.07-.08-2.64-1.74-2.91-2.01-.26-.27-.77-.55-.77-.55.53-.47,1.23-.66,2.09-.95.86-.28,2.86,1.24,3.41,1.67.54.44,1.23.7,1.23.7-.7.8-1.98,1.22-3.05,1.13h0Zm-4.24,1.56c-1.07-.18-2.51-1.95-2.75-2.24-.24-.3-.73-.61-.73-.61.58-.42,1.3-.55,2.2-.76.9-.21,2.77,1.47,3.28,1.95.5.48,1.18.79,1.18.79-.78.74-2.11,1.05-3.18.87h0Zm-4.39,1.23c-1.05-.29-2.28-2.21-2.48-2.52-.21-.32-.66-.68-.66-.68.63-.36,1.35-.41,2.27-.52.91-.11,2.6,1.76,3.05,2.29.45.53,1.09.92,1.09.92-.86.65-2.22.82-3.26.53h0Zm-4.45.84c-1.02-.38-2.07-2.39-2.25-2.73-.18-.34-.59-.74-.59-.74.66-.3,1.39-.29,2.31-.33.92-.04,2.43,1.98,2.84,2.54.4.57,1,1.01,1,1.01-.91.57-2.28.62-3.3.24h0Zm-4.55.4c-.98-.46-1.85-2.57-2-2.92-.15-.35-.53-.79-.53-.79.68-.25,1.41-.17,2.33-.12.92.05,2.25,2.18,2.59,2.78.35.6.9,1.09.9,1.09-.96.49-2.33.42-3.3-.05h0Zm-4.55,0c-.93-.55-1.62-2.72-1.73-3.08-.11-.36-.45-.83-.45-.83.7-.19,1.42-.05,2.33.08.91.12,2.04,2.36,2.34,2.99.3.63.81,1.17.81,1.17-1,.4-2.36.22-3.29-.33h0Zm-4.48-.36c-.89-.63-1.38-2.84-1.46-3.21-.08-.37-.38-.86-.38-.86.72-.13,1.42.07,2.32.27.9.2,1.83,2.53,2.07,3.18.24.65.7,1.23.7,1.23-1.03.32-2.37.02-3.25-.61h0Zm-4.43-.8c-.83-.69-1.16-2.93-1.22-3.31-.06-.38-.32-.89-.32-.89.72-.07,1.41.17,2.29.44.88.27,1.64,2.66,1.83,3.32.19.66.61,1.28.61,1.28-1.05.25-2.36-.15-3.2-.84h0Zm-4.43-1.17c-.76-.77-.86-3.04-.88-3.41-.02-.38-.22-.92-.22-.92.73,0,1.38.31,2.23.66.85.35,1.36,2.81,1.49,3.49.12.68.48,1.33.48,1.33-1.07.14-2.33-.38-3.1-1.15h0Zm-4.81-4.99c.01-.38-.15-.93-.15-.93.73.06,1.35.42,2.17.84.82.42,1.13,2.9,1.2,3.59.07.69.37,1.36.37,1.36-1.08.06-2.3-.57-2.99-1.39-.7-.82-.61-3.09-.6-3.47Zm-4.19-4s-1.3-1.82-3.43-2.21c0,0-.76-1.66-3.29-2.58,0,0-.52-1.8-2.96-2.77,0,0-.25-1.58-2.77-3.2,0,0-.29-1.74-2.45-3.3,0,0-.17-1.99-2.14-3.5,0,0,.11-1.69-1.84-3.8,0,0,.03-2.28-1.49-3.85,0,0,.17-2.41-1.17-3.93,0,0,.43-2.06-.79-3.89-.28-.47.17-.72.16-1.35-.01-.63-.25-2.17-.65-2.97,0,0,.9-1.61-.11-4.08,0,0,.93-1.41.29-4.19,0,0,1.04-1.36.62-4.12,0,0,1.08-.86.97-3.96,0,0,1.19-.75,1.33-3.91,0,0,1.46-1,1.66-3.8,0,0,1.41-.53,1.97-3.6,0,0,1.6-.73,2.3-3.35,0,0,.82-.56,1.3-1.14.48-.58,1.09-1.5,1.33-2.19,0,0,1.08-.45,1.74-1.34.67-.89,1.06-1.71,1.06-1.71,0,0,1.84-.38,3.18-2.77,0,0,1.77-.12,3.31-2.42,0,0,1.74-.14,3.51-2.1,0,0,1.93.03,3.71-1.86,0,0,1.9.3,3.86-1.5,0,0,1.73.45,3.99-1.16,0,0,1.57.64,4.02-.77,0,0,1.49.66,4.16-.5,0,0,1.25.91,4.16-.06,0,0,1.66.92,4.07.26,0,0,1.27,1,4.07.63,0,0,1.23,1.27,4.08.97,0,0,.76,1.22,3.93,1.3,0,0,.6,1.25,3.74,1.64,0,0,.71,1.41,3.67,1.99,0,0,.63,1.42,3.4,2.24,0,0,.48,1.45,3.15,2.56,0,0,.71,1.78,2.99,2.82,0,0,.19,1.48,2.77,3.13,0,0,.17,1.61,2.45,3.35,0,0,.21,1.95,2.14,3.49,0,0,.08,2.08,1.83,3.71,0,0-.19,1.96,1.49,3.85,0,0-.16,2.43,1.17,3.96,0,0-.48,1.88.79,4.07,0,0-.62,1.83.48,4.07,0,0-.81,1.83.11,4.16,0,0-.9,1.11-.32,4.22,0,0-.97,1.17-.6,3.95,0,0-1.12,1.47-.96,3.94,0,0-1.22,1.38-1.3,4.01,0,0-1.44,1.06-1.68,3.79,0,0-1.33.83-1.99,3.63,0,0-1.64,1.14-2.21,3.39,0,0-1.82.95-2.64,3.36,0,0-1.57.47-2.79,2.85,0,0,0,.05-.7.39-.7.34-1.76,1.38-2.45,2.41,0,0-.22.08-.93.38-.71.3-1.73,1.11-2.39,2.14,0,0-2,.17-3.56,2.16,0,0-1.68-.16-3.69,1.82,0,0-1.9-.19-3.89,1.55,0,0-1.79-.46-3.88,1.16,0,0-1.9-.5-4.1.85,0,0-1.66-.72-4.13.45,0,0-1.63-.81-4.12.1,0,0-1.57-.96-4.13-.25,0,0-1.23-1.03-4.08-.58,0,0-1.01-1.17-4.04-1,0,0-1.17-1.39-3.93-1.31,0,0-1.07-1.47-3.65-1.68,0,0-1.24-1.64-3.67-2.02h0Zm.65,5.57c-.61-.89-.3-3.14-.25-3.51.05-.38-.06-.94-.06-.94.72.13,1.31.55,2.08,1.05.77.49.84,3,.84,3.69s.23,1.39.23,1.39c-1.08-.05-2.23-.79-2.84-1.68h0Zm-3.92-2.28c-.54-.93-.06-3.15.03-3.52.08-.37.02-.94.02-.94.7.18,1.26.65,1.99,1.2.73.55.6,3.05.54,3.74-.06.69.12,1.4.12,1.4-1.07-.13-2.16-.95-2.7-1.89h0Zm-1.15-.44c-1.06-.22-2.08-1.13-2.54-2.1-.46-.97.21-3.15.32-3.51.11-.36.09-.94.09-.94.69.24,1.2.75,1.89,1.36.68.61.34,3.09.24,3.78-.11.68,0,1.41,0,1.41h0Zm-3.57-4.19c-.16.69-.09,1.43-.09,1.43-1.01-.27-1.93-1.23-2.29-2.23-.37-.99.43-3.1.56-3.45.13-.35.16-.91.16-.91.63.25,1.08.77,1.69,1.39.61.62.13,3.08-.02,3.76h0Zm-3.33-2.95c-.22.67-.23,1.42-.23,1.42-.98-.36-1.8-1.41-2.07-2.43-.27-1.02.73-3.05.89-3.39.16-.33.25-.89.25-.89.6.31,1,.86,1.55,1.54.55.68-.17,3.08-.39,3.75h0Zm-3.41-1.81c-.94-.46-1.65-1.58-1.82-2.63-.17-1.04,1.02-2.96,1.22-3.28.2-.32.33-.86.33-.86.57.36.91.96,1.39,1.68.48.73-.48,3.05-.76,3.69-.28.64-.37,1.39-.37,1.39h0Zm-2.36-4.96c-.34.62-.48,1.36-.48,1.36-.9-.53-1.52-1.7-1.6-2.76-.08-1.05,1.26-2.87,1.48-3.17.22-.3.4-.83.4-.83.54.41.83,1.03,1.25,1.79.42.77-.71,3-1.04,3.62h0Zm-2.4-3.79c-.38.59-.59,1.32-.59,1.32-.86-.6-1.38-1.82-1.37-2.88,0-1.05,1.49-2.76,1.73-3.04.24-.28.46-.8.46-.8.5.45.74,1.09,1.1,1.88.36.8-.96,2.94-1.34,3.53h0Zm-2.75-2.65c-.79-.68-1.19-1.94-1.09-2.99.1-1.05,1.75-2.62,2.02-2.87.27-.26.54-.75.54-.75.46.49.64,1.15.91,1.97.28.83-1.23,2.84-1.67,3.39-.44.55-.71,1.26-.71,1.26h0Zm-1.87-4.18c-.73-.74-1.02-2.03-.83-3.07.19-1.04,1.96-2.46,2.25-2.69.29-.23.6-.7.6-.7.41.53.54,1.2.74,2.04.21.85-1.47,2.72-1.95,3.23-.48.52-.82,1.19-.82,1.19h0Zm-1.99-7.43c.29-1.01,2.19-2.26,2.5-2.47.31-.2.67-.64.67-.64.36.57.42,1.25.54,2.1.13.86-1.72,2.57-2.25,3.04-.53.47-.93,1.11-.93,1.11-.65-.8-.82-2.12-.53-3.14Zm-.78-4.42c.36-.99,2.34-2.12,2.66-2.3.32-.18.71-.6.71-.6.32.59.34,1.27.4,2.13.07.87-1.89,2.45-2.45,2.88-.56.43-1,1.05-1,1.05-.6-.85-.68-2.17-.32-3.17h0Zm-.42-1.31c-.52-.9-.46-2.22,0-3.18.45-.95,2.54-1.87,2.88-2.03.34-.15.77-.52.77-.52.26.62.2,1.3.18,2.16-.02.87-2.13,2.25-2.73,2.63-.6.37-1.1.94-1.1.94h0Zm-.03-7.71c.53-.91,2.68-1.66,3.04-1.79.35-.12.8-.46.8-.46.21.64.1,1.31,0,2.17-.1.86-2.31,2.07-2.94,2.4-.63.33-1.17.85-1.17.85-.44-.94-.27-2.25.27-3.17h0Zm.4-4.54c.6-.87,2.81-1.45,3.17-1.55.36-.1.84-.4.84-.4.15.65,0,1.31-.17,2.16-.16.86-2.47,1.89-3.12,2.16-.66.27-1.24.76-1.24.76-.36-.97-.09-2.27.52-3.14h0Zm.69-4.43c.67-.82,2.92-1.23,3.29-1.3.37-.07.87-.33.87-.33.1.66-.11,1.31-.34,2.14-.23.84-2.61,1.69-3.29,1.91-.67.22-1.29.66-1.29.66-.28-1,.08-2.27.76-3.09h0Zm1.23-4.46c.77-.73,3.05-.86,3.42-.88.37-.02.9-.22.9-.22.02.67-.27,1.28-.6,2.09-.33.81-2.8,1.35-3.5,1.49-.7.14-1.37.5-1.37.5-.15-1.02.37-2.24,1.15-2.97h0Zm1.53-4.17c.82-.68,3.1-.66,3.48-.65.38,0,.92-.16.92-.16-.03.67-.37,1.26-.75,2.04-.39.78-2.89,1.17-3.59,1.26-.7.09-1.4.4-1.4.4-.08-1.03.52-2.21,1.35-2.89h0Zm1.85-4.13c.88-.59,3.15-.35,3.52-.31.38.04.93-.07.93-.07-.09.66-.49,1.22-.95,1.96-.46.74-2.99.88-3.7.9-.71.02-1.43.27-1.43.27.02-1.04.74-2.15,1.63-2.74h0Zm2.27-3.94c.93-.52,3.17-.11,3.54-.04.37.07.93,0,.93,0-.14.66-.58,1.18-1.1,1.88-.52.7-3.05.65-3.76.62-.71-.03-1.45.16-1.45.16.1-1.03.9-2.09,1.83-2.62h0Zm2.59-3.69c.96-.45,3.16.16,3.53.25.36.1.93.08.93.08-.2.64-.67,1.13-1.25,1.78-.58.66-3.09.39-3.8.3-.71-.09-1.46.04-1.46.04.19-1.02,1.08-2,2.05-2.45h0Zm2.91-3.52c1-.36,3.14.43,3.49.56.35.13.92.16.92.16-.26.62-.78,1.07-1.41,1.67-.63.61-3.12.12-3.81-.02-.7-.15-1.46-.09-1.46-.09.28-1,1.25-1.9,2.26-2.26h0Zm3.15-3.2c1.03-.26,3.09.72,3.43.88.34.16.9.24.9.24-.31.6-.87.99-1.56,1.53-.69.54-3.12-.17-3.79-.38-.67-.22-1.44-.23-1.44-.23.37-.97,1.43-1.78,2.47-2.04h0Zm3.51-2.95c1.05-.17,3.01.99,3.33,1.18.32.19.87.32.87.32-.37.57-.96.91-1.69,1.39-.73.48-3.09-.44-3.74-.72-.66-.28-1.41-.35-1.41-.35.45-.93,1.58-1.64,2.64-1.81h0Zm3.73-2.58c1.07-.08,2.91,1.25,3.21,1.47.31.22.84.4.84.4-.42.53-1.04.82-1.81,1.23-.77.41-3.04-.71-3.66-1.05-.63-.33-1.38-.47-1.38-.47.54-.89,1.73-1.5,2.8-1.58h0Zm3.93-2.25c1.06.02,2.77,1.52,3.05,1.77.28.25.8.47.8.47-.46.49-1.11.72-1.92,1.05-.81.34-2.95-1-3.54-1.39-.59-.39-1.32-.6-1.32-.6.62-.83,1.86-1.32,2.94-1.3h0Zm4.03-2.01c1.06.09,2.65,1.74,2.91,2.02.26.27.76.54.76.54-.5.48-1.17.67-2,.97-.84.3-2.87-1.22-3.43-1.65-.56-.44-1.27-.71-1.27-.71.68-.82,1.96-1.26,3.03-1.17h0Zm4.41-1.52c1.05.2,2.43,2.01,2.66,2.31.23.3.69.62.69.62-.56.42-1.25.55-2.12.75-.87.21-2.72-1.51-3.23-2.01-.51-.5-1.18-.84-1.18-.84.79-.74,2.12-1.04,3.18-.84h0Zm4.31-1.2c1.03.27,2.29,2.17,2.49,2.49.2.31.65.66.65.66-.59.38-1.29.46-2.17.61-.89.15-2.61-1.69-3.08-2.22-.47-.53-1.12-.92-1.12-.92.84-.69,2.18-.89,3.23-.62h0Zm4.5-.83c1.01.37,2.07,2.38,2.25,2.71.17.33.58.72.58.72-.62.33-1.32.34-2.21.4-.9.06-2.44-1.93-2.86-2.49-.42-.57-1.03-1.02-1.03-1.02.9-.61,2.26-.69,3.27-.32h0Zm4.47-.41c.96.45,1.85,2.55,1.99,2.89.14.34.52.76.52.76-.65.27-1.35.22-2.24.21-.9-.01-2.26-2.13-2.62-2.73-.37-.6-.94-1.1-.94-1.1.95-.53,2.31-.49,3.29-.04h0Zm4.57.04c.92.55,1.58,2.69,1.69,3.04.11.35.43.8.43.8-.67.19-1.36.06-2.25-.05-.89-.11-2.03-2.33-2.33-2.96-.31-.63-.82-1.18-.82-1.18,1-.41,2.35-.21,3.28.34h0Zm4.47.38c.87.61,1.37,2.8,1.45,3.16.08.36.37.84.37.84-.69.15-1.37-.02-2.24-.19-.88-.17-1.84-2.47-2.09-3.11-.25-.66-.73-1.24-.73-1.24,1.03-.35,2.36-.07,3.24.54h0Zm4.47.78c.81.69,1.1,2.92,1.15,3.28.05.36.29.86.29.86-.7.09-1.36-.15-2.21-.39-.86-.25-1.6-2.63-1.79-3.3-.19-.68-.61-1.3-.61-1.3,1.05-.25,2.36.15,3.17.84h0Zm4.41,1.19c.73.76.8,3.01.81,3.38,0,.37.2.89.2.89-.7.02-1.33-.28-2.16-.62-.83-.34-1.33-2.77-1.45-3.46-.12-.69-.47-1.35-.47-1.35,1.07-.14,2.33.38,3.07,1.15h0Zm4.2,1.5c.67.82.55,3.06.52,3.43-.02.37.13.9.13.9-.7-.04-1.31-.39-2.1-.79-.8-.4-1.09-2.87-1.15-3.56-.06-.7-.36-1.39-.36-1.39,1.08-.06,2.29.57,2.97,1.4h0Zm4.1,1.91c.6.87.3,3.1.25,3.46-.05.37.06.91.06.91-.7-.1-1.28-.49-2.04-.94-.77-.46-.86-2.95-.87-3.64,0-.7-.25-1.41-.25-1.41,1.08.03,2.24.74,2.85,1.62h0Zm3.99,2.22c.52.92,0,3.11-.08,3.47-.08.36-.03.91-.03.91-.69-.16-1.22-.61-1.94-1.13-.72-.53-.58-3.01-.52-3.71.06-.7-.11-1.43-.11-1.43,1.08.13,2.16.95,2.68,1.88h0Zm1.13.47c1.06.21,2.08,1.11,2.53,2.07.45.96-.23,3.1-.35,3.46-.11.35-.1.91-.1.91-.67-.21-1.17-.69-1.84-1.27-.68-.58-.34-3.05-.23-3.73.11-.69,0-1.43,0-1.43h0Zm3.58,4.07c.18-.68.13-1.42.13-1.42,1.04.31,1.96,1.3,2.31,2.31.35,1-.54,3.07-.68,3.41-.15.34-.19.89-.19.89-.65-.27-1.1-.8-1.71-1.45-.62-.65-.04-3.07.14-3.74h0Zm3.24,2.98c.23-.66.25-1.41.25-1.41,1.01.39,1.85,1.45,2.12,2.48.27,1.02-.78,3.01-.95,3.34-.17.33-.26.88-.26.88-.62-.33-1.03-.89-1.59-1.58-.56-.69.2-3.06.44-3.72Zm3.37,1.89c.98.47,1.73,1.59,1.91,2.64.18,1.04-1.02,2.94-1.22,3.25-.2.31-.33.85-.33.85-.59-.37-.96-.97-1.46-1.69-.51-.73.45-3.03.73-3.67.29-.64.36-1.39.36-1.39h0Zm2.4,4.87c.35-.61.51-1.34.51-1.34.92.57,1.55,1.76,1.63,2.82.07,1.05-1.33,2.82-1.56,3.11-.23.29-.42.81-.42.81-.55-.43-.85-1.06-1.27-1.84-.42-.78.77-2.97,1.12-3.57h0Zm2.39,3.67c.4-.58.62-1.3.62-1.3.87.64,1.4,1.88,1.38,2.95,0,1.06-1.56,2.7-1.81,2.98-.25.27-.48.78-.48.78-.51-.48-.76-1.12-1.11-1.93-.36-.81,1.01-2.9,1.41-3.47h0Zm2.78,2.76c.82.71,1.24,1.99,1.13,3.05-.1,1.05-1.78,2.57-2.06,2.82-.28.25-.55.74-.55.74-.47-.52-.66-1.18-.95-2.02-.29-.84,1.25-2.8,1.7-3.34.45-.54.72-1.24.72-1.24h0Zm1.81,4.13c.77.76,1.1,2.06.93,3.11-.17,1.04-1.94,2.45-2.23,2.68-.29.23-.6.7-.6.7-.44-.54-.58-1.22-.81-2.07-.23-.86,1.43-2.72,1.91-3.23.48-.51.8-1.19.8-1.19h0Zm2.08,7.54c-.28,1.02-2.18,2.25-2.49,2.45-.31.2-.66.64-.66.64-.38-.58-.46-1.27-.6-2.14-.15-.88,1.7-2.56,2.22-3.03.53-.46.92-1.11.92-1.11.69.83.89,2.16.62,3.19h0Zm.77,4.41c-.37.99-2.37,2.05-2.7,2.22-.33.17-.72.58-.72.58-.33-.61-.34-1.3-.41-2.18-.07-.89,1.92-2.41,2.49-2.82.57-.41,1.01-1.02,1.01-1.02.61.89.69,2.23.33,3.23h0Zm.39,1.31c.53.94.49,2.28.03,3.25-.45.95-2.55,1.83-2.89,1.97-.34.14-.77.51-.77.51-.27-.64-.22-1.33-.21-2.21.01-.89,2.13-2.23,2.73-2.59.61-.36,1.1-.93,1.1-.93h0Zm1.04,3.52s.27-.97.19-1.96c-.08-1.14-.51-2.33-.51-2.33,0,0,.15-1.32-.04-2.47-.22-1.29-.79-2.41-.79-2.41,0,0,.13-1.02-.16-2.09-.3-1.11-1.01-2.28-1.01-2.28,0,0,.03-1.02-.35-2.07-.41-1.13-1.23-2.28-1.23-2.28,0,0-.03-1.04-.47-2.01-.51-1.13-1.45-2.22-1.45-2.22,0,0-.13-.98-.58-1.77-.66-1.15-1.71-2.24-1.71-2.24,0,0-.27-.96-.9-1.84-.76-1.07-1.91-2.1-1.91-2.1,0,0-.1-.65-.7-1.37-.8-.97-2.16-2.08-2.16-2.08,0,0-.4-.87-1.17-1.62-.82-.8-2.02-1.49-2.02-1.49-.49-.95-1.19-1.59-1.8-2.01-.61-.42-1.86-1.01-1.86-1.01,0,0-.38-.75-1.2-1.32-1-.69-2.45-1.22-2.45-1.22-.51-.71-1.01-1.05-1.86-1.54-.84-.49-1.83-.67-1.99-.75-.16-.08-.78-.7-1.64-1.18-.87-.48-2.63-.82-2.63-.82,0,0-.73-.71-1.75-1.07-1.16-.41-2.62-.47-2.62-.47,0,0-.63-.63-1.6-.88-1.2-.32-2.79-.28-2.79-.28,0,0-.77-.59-1.85-.81-1.23-.26-2.79-.16-2.79-.16,0,0-1.04-.48-2.11-.57-1.18-.1-2.41.19-2.41.19,0,0-.9-.3-1.98-.31-1.2-.01-2.59.25-2.59.25,0,0-1.14-.22-2.22-.12-1.18.11-2.31.53-2.31.53,0,0-1.23-.16-2.27.02-1.25.22-2.37.79-2.37.79,0,0-1.15-.07-2.16.2-1.2.32-2.27.99-2.27.99,0,0-1.21.03-2.28.42-1.13.42-2.12,1.22-2.12,1.22,0,0-.98-.08-1.99.38-1.06.49-2.14,1.5-2.14,1.5,0,0-.97.08-1.88.59-1.13.64-2.25,1.72-2.25,1.72,0,0-.98.32-1.83.92-1.02.71-1.93,1.72-1.93,1.72,0,0-.88.27-1.67.91-.93.77-1.8,1.94-1.8,1.94,0,0-1.01.46-1.83,1.28-.87.87-1.56,2.11-1.56,2.11,0,0-.87.5-1.56,1.32-.72.85-1.25,2.01-1.25,2.01,0,0-.97.72-1.63,1.65-.71,1-1.11,2.21-1.11,2.21,0,0-.83.74-1.4,1.73-.63,1.08-.99,2.42-.99,2.42,0,0-.76.7-1.22,1.65-.51,1.07-.72,2.4-.72,2.4,0,0-.69.83-1.07,1.85-.41,1.11-.5,2.4-.5,2.4,0,0-.66.93-.93,1.99-.31,1.19-.24,2.53-.24,2.53,0,0-.58.88-.8,2-.22,1.16-.09,2.56-.09,2.56,0,0-.45,1.06-.55,2.16-.11,1.14.14,2.32.14,2.32C.33,50.58,0,51.79,0,52.97c0,1.19.3,2.37.3,2.37,0,0-.27,1.13-.16,2.27.11,1.17.61,2.35.61,2.35,0,0-.22,1.03-.03,2.12.2,1.17.81,2.42.81,2.42,0,0-.06,1.19.2,2.19.32,1.16.97,2.16.97,2.16,0,0-.03,1.16.32,2.16.43,1.23,1.27,2.36,1.27,2.36,0,0,.02,1,.44,1.91.53,1.14,1.5,2.23,1.5,2.23,0,0,.08,1.01.58,1.9.63,1.12,1.71,2.19,1.71,2.19,0,0,.19,1.03.79,1.87.7.98,1.81,1.79,1.81,1.79,0,0,.27.96.88,1.72.85,1.04,2.13,1.95,2.13,1.95,0,0,.3.8.97,1.47.9.89,2.23,1.71,2.23,1.71,0,0,.42.82,1.2,1.45,1,.81,2.41,1.5,2.41,1.5,0,0,.57.87,1.35,1.42,1,.69,2.26,1.09,2.26,1.09,0,0,.63.88,1.57,1.44,1.12.67,2.59,1.05,2.59,1.05,0,0,.76.75,1.67,1.17,1.14.53,2.49.75,2.49.75,0,0,.78.72,1.81,1.08,1.14.41,2.54.46,2.54.46,0,0,.75.66,1.74.93,1.23.34,2.74.32,2.74.32,0,0,.7.56,1.6.72,1.29.22,2.9.08,2.9.08,0,0,.84.49,1.85.59,1.25.12,2.73-.16,2.73-.16,0,0,.89.41,1.97.42,1.19.02,2.59-.36,2.59-.36,0,0,1.18.25,2.23.16,1.22-.11,2.35-.58,2.35-.58,0,0,1.05.25,2.08.06,1.24-.22,2.49-.9,2.49-.9,0,0,.97.16,1.9-.08,1.26-.34,2.58-1.11,2.58-1.11,0,0,1.13,0,2.11-.36,1.14-.43,2.16-1.24,2.16-1.24,0,0,1.02-.01,2.02-.47,1.1-.51,2.19-1.47,2.19-1.47,0,0,1.01-.12,1.89-.63,1.1-.64,2.12-1.69,2.12-1.69,0,0,1.02-.26,1.79-.81,1.07-.76,1.99-1.88,1.99-1.88,0,0,1-.31,1.79-.96.95-.77,1.72-1.9,1.72-1.9,0,0,.99-.45,1.73-1.18.9-.9,1.59-2.12,1.59-2.12,0,0,.9-.52,1.61-1.37.77-.92,1.38-2.18,1.38-2.18,0,0,.87-.59,1.45-1.41.7-.99,1.13-2.26,1.13-2.26,0,0,.82-.65,1.35-1.57.66-1.13,1.06-2.59,1.06-2.59,0,0,.74-.68,1.17-1.61.53-1.16.79-2.61.79-2.61,0,0,.68-.68,1.04-1.67.37-1.03.42-2.36.42-2.36,0,0,.67-.93.97-2.02.35-1.27.33-2.72.33-2.72,0,0,.56-.7.74-1.69.23-1.24.09-2.83.09-2.83,0,0,.45-.87.55-1.99.11-1.19-.13-2.64-.13-2.64,0,0,.38-.89.37-1.85,0-1.25-.39-2.67-.39-2.67Z"/>
      <circle id="path-2" data-name="path" class="cls-1" cx="53.2" cy="53.2" r="32.1"/>
      <path id="sundial-shadow" class="cls-2" d="m60.2,47.48h0c.15-.12.18-.34.06-.49l-6.41-8.36c-.12-.15-.34-.18-.49-.06h0c-.15.12-.18.34-.06.49l6.41,8.36c.12.15.34.18.49.06Z"/>
      <path id="sundial-arm" class="cls-2" d="m60.17,30.17h0c.15.12.18.34.06.49l-6.41,8.36c-.12.15-.34.18-.49.06h0c-.15-.12-.18-.34-.06-.49l6.41-8.36c.12-.15.34-.18.49-.06Z"/>
      <path id="path-3" data-name="path" class="cls-2" d="m54.72,28.42c-5.03-.86-9.74,1.04-11.3,4.92-1.89,4.68,1.51,10.47,7.6,12.93,6.09,2.46,12.56.66,14.45-4.02.86-2.14.62-4.51-.47-6.69,1.74,2.8,2.25,5.97,1.11,8.79-2.21,5.47-9.79,7.57-16.93,4.69-7.14-2.88-11.13-9.66-8.92-15.14,1.96-4.85,8.13-7.05,14.47-5.49Z"/>
      <path id="path-4" data-name="path" class="cls-2" d="m54.12,60.41c0-.36.29-.65.66-.65h13.23c.36,0,.83.23,1.05.52l1.18,1.57c.22.29.1.52-.26.52h-15.2c-.36,0-.65-.29-.65-.65v-1.31Z"/>
      <path id="Combined-Shape" class="cls-2" d="m57.13,63.03v.79c0,.36.29.65.66.65h13.41c.5,0,.93,0,1.34.49l3.64,4.82c.44.58.32,1.4-.26,1.84-.29.22-.72.36-1.05.32h-20.35c-.22,0-.39-.18-.39-.39v-1.83c0-.22.18-.39.39-.39h17.3c.3,0,.42-.15.31-.36l-1.2-1.37c-.24-.27-.73-.49-1.09-.49h-15.33c-.22,0-.39-.18-.39-.39v-6.29c0-.36.29-.65.66-.65h13.23c.36,0,.83.23,1.05.52l1.18,1.57c.22.29.1.52-.26.52h-12.19c-.36,0-.66.29-.66.65Z"/>
      <path id="Combined-Shape-2" data-name="Combined-Shape" class="cls-2" d="m30.62,71.68c-.58-.44-.69-1.26-.26-1.84l7.21-9.57c.25-.33.63-.51,1.02-.52.02,0,4.45,0,13.31,0,.22,0,.39.17.39.39v1.83c0,.22-.18.39-.39.39h-12.62l-5.23,6.95h17.85c.22,0,.39.18.39.39v1.83c0,.22-.18.39-.39.39h-20.35c-.37,0-.65-.05-.92-.26Z"/>
      <polygon id="path-5" data-name="path" class="cls-2" points="59.89 51.76 60.67 52.55 62.24 52.55 63.03 51.76 59.89 51.76"/>
      <polygon id="path-6" data-name="path" class="cls-2" points="59.75 54.25 60.15 54.64 60.54 54.25 60.54 52.68 59.75 51.89 59.75 54.25"/>
      <polygon id="path-7" data-name="path" class="cls-2" points="63.16 54.25 62.77 54.64 62.38 54.25 62.38 52.68 63.16 51.89 63.16 54.25"/>
      <polygon id="path-8" data-name="path" class="cls-2" points="59.89 57.79 60.67 57 62.24 57 63.03 57.79 59.89 57.79"/>
      <polygon id="path-9" data-name="path" class="cls-2" points="59.75 55.3 60.15 54.91 60.54 55.3 60.54 56.87 59.75 57.66 59.75 55.3"/>
      <polygon id="path-10" data-name="path" class="cls-2" points="63.16 55.3 62.77 54.91 62.38 55.3 62.38 56.87 63.16 57.66 63.16 55.3"/>
      <polygon id="path-11" data-name="path" class="cls-2" points="62.64 54.77 62.24 55.17 60.67 55.17 60.28 54.77 60.67 54.38 62.24 54.38 62.64 54.77"/>
      <polygon id="path-12" data-name="path" class="cls-2" points="54.38 51.76 55.17 52.55 56.74 52.55 57.53 51.76 54.38 51.76"/>
      <polygon id="path-13" data-name="path" class="cls-2" points="54.25 54.25 54.64 54.64 55.04 54.25 55.04 52.68 54.25 51.89 54.25 54.25"/>
      <polygon id="path-14" data-name="path" class="cls-2" points="54.38 57.79 55.17 57 56.74 57 57.53 57.79 54.38 57.79"/>
      <polygon id="path-15" data-name="path" class="cls-2" points="57.66 55.3 57.26 54.91 56.87 55.3 56.87 56.87 57.66 57.66 57.66 55.3"/>
      <polygon id="path-16" data-name="path" class="cls-2" points="57.13 54.77 56.74 55.17 55.17 55.17 54.77 54.77 55.17 54.38 56.74 54.38 57.13 54.77"/>
      <polygon id="path-17" data-name="path" class="cls-2" points="48.88 51.76 49.66 52.55 51.24 52.55 52.02 51.76 48.88 51.76"/>
      <polygon id="path-18" data-name="path" class="cls-2" points="48.75 54.25 49.14 54.64 49.53 54.25 49.53 52.68 48.75 51.89 48.75 54.25"/>
      <polygon id="path-19" data-name="path" class="cls-2" points="52.15 54.25 51.76 54.64 51.37 54.25 51.37 52.68 52.15 51.89 52.15 54.25"/>
      <polygon id="path-20" data-name="path" class="cls-2" points="48.88 57.79 49.66 57 51.24 57 52.02 57.79 48.88 57.79"/>
      <polygon id="path-21" data-name="path" class="cls-2" points="52.15 55.3 51.76 54.91 51.37 55.3 51.37 56.87 52.15 57.66 52.15 55.3"/>
      <polygon id="path-22" data-name="path" class="cls-2" points="51.63 54.77 51.24 55.17 49.66 55.17 49.27 54.77 49.66 54.38 51.24 54.38 51.63 54.77"/>
      <polygon id="path-23" data-name="path" class="cls-2" points="46.65 54.25 46.26 54.64 45.86 54.25 45.86 52.68 46.65 51.89 46.65 54.25"/>
      <polygon id="path-24" data-name="path" class="cls-2" points="46.65 55.3 46.26 54.91 45.86 55.3 45.86 56.87 46.65 57.66 46.65 55.3"/>
    </g>
  </g>
</svg>